# xmcd
#
# Track frame offsets:
#	150
#	16371
#	28734
#	43738
#	58141
#	71737
#	86367
#	100387
#	120714
#	133308
#	150533
#	166204
#	193054
#
# Disc length: 2713 seconds
#
# Revision: 0
# Processed by: cddbd v1.4PL0 Copyright (c) Steve Scherf et al.
# Submitted via: EasyCDDAExtractor 4.5.2.1
#
DISCID=b50a970d
DTITLE=Los tucanes de tijuana - Me gusta vivir de noche
DYEAR=1900
DGENRE=
TTITLE0=Me gusta vivir de noche
TTITLE1=El amor soñado
TTITLE2=Estoy a dieta
TTITLE3=La gran noche
TTITLE4=La viagra
TTITLE5=Ni todo el amor ni todo el dinero
TTITLE6=El clasico
TTITLE7=Triste realidad
TTITLE8=Mañanitas alegres
TTITLE9=Preciosura
TTITLE10=Promesas
TTITLE11=Mi estrella de hollywood
TTITLE12=Pista de datos
EXTD=
EXTT0=
EXTT1=
EXTT2=
EXTT3=
EXTT4=
EXTT5=
EXTT6=
EXTT7=
EXTT8=
EXTT9=
EXTT10=
EXTT11=
EXTT12=
PLAYORDER=
